<svg xmlns="http://www.w3.org/2000/svg" xmlns:svg="http://www.w3.org/2000/svg" id="svg2" width="600" height="79.889" version="1.1" viewBox="0 0 600 79.889"><metadata id="metadata7"/><g id="layer1" transform="translate(-79.636725,-410.81441)"><g id="g40657"><path id="path4438" d="m 238.40601,468.7109 -7.18113,0 0,-35.9057 7.18113,0 0,35.9057 z m 0,-14.36229 0,-7.18112 14.29045,0 0,7.18112 -14.29045,0 z m 0,-14.36225 0,-7.18116 21.54341,0 0,7.18116 -21.54341,0 z m 0,28.72454 0,-7.18116 21.54341,0 0,7.18116 -21.54341,0 z m -50.50972,-28.72454 0,-7.18116 35.90565,0 0,7.18116 -35.90565,0 z m 21.54336,28.72454 -7.18112,0 0,-28.72454 7.18112,0 0,28.72454 z m -57.5436,-28.72454 0,-7.18116 21.54341,0 0,7.18116 -21.54341,0 z m 0,14.36225 0,-7.18112 21.54341,0 0,7.18112 -21.54341,0 z m 0,14.36229 -7.18113,0 0,-28.72454 7.18113,0 0,28.72454 z m 28.72456,0 -7.18115,0 0,-28.72454 7.18115,0 0,28.72454 z m -71.9059,0 -7.18114,0 0,-35.9057 7.18114,0 0,35.9057 z m 0,-28.72454 0,-7.18116 21.5434,0 0,7.18116 -21.5434,0 z m 0,28.72454 0,-7.18116 21.5434,0 0,7.18116 -21.5434,0 z m 28.72455,-7.18116 -7.18115,0 0,-21.54338 7.18115,0 0,21.54338 z" style="font-style:normal;font-variant:normal;font-weight:400;font-stretch:normal;font-size:medium;line-height:125%;font-family:'Victors Pixel Font';-inkscape-font-specification:'Victors Pixel Font, Normal';text-align:start;letter-spacing:-2.79999995px;word-spacing:0;writing-mode:lr-tb;text-anchor:start;fill:#333844;fill-opacity:1;stroke:none"/><path id="path4440" d="m 426.69575,468.7109 -7.18113,0 0,-35.9057 7.18113,0 0,35.9057 z m 0,-14.36229 0,-7.18112 14.36228,0 0,7.18112 -14.36228,0 z m 21.54341,14.36229 -7.18113,0 0,-35.9057 7.18113,0 0,35.9057 z m -72.05315,-28.72454 0,-7.18116 35.90567,0 0,7.18116 -35.90567,0 z m 21.54339,28.72454 -7.18113,0 0,-28.72454 7.18113,0 0,28.72454 z m -28.82609,0 -7.18112,0 0,-35.9057 7.18112,0 0,35.9057 z m -57.46647,-7.18116 -7.18113,0 0,-28.72454 7.18113,0 0,28.72454 z m 0,7.18116 0,-7.18116 14.29045,0 0,7.18116 -14.29045,0 z m 21.54341,0 0,-7.18116 14.29045,0 0,7.18116 -14.29045,0 z m 21.54341,-7.18116 -7.18115,0 0,-28.72454 7.18115,0 0,28.72454 z m -21.54341,0 -7.18115,0 0,-21.54338 7.18115,0 0,21.54338 z" style="font-style:normal;font-variant:normal;font-weight:400;font-stretch:normal;font-size:medium;line-height:125%;font-family:'Victors Pixel Font';-inkscape-font-specification:'Victors Pixel Font, Normal';text-align:start;letter-spacing:-2.79999995px;word-spacing:0;writing-mode:lr-tb;text-anchor:start;fill:#333844;fill-opacity:1;stroke:none"/><path id="path4442" d="m 629.11591,439.98636 0,-7.18116 21.54341,0 0,7.18116 -21.54341,0 z m 0,14.36225 0,-7.18112 21.54341,0 0,7.18112 -21.54341,0 z m 0,14.36229 -7.18113,0 0,-28.72454 7.18113,0 0,28.72454 z m 28.72454,0 -7.18113,0 0,-28.72454 7.18113,0 0,28.72454 z m -79.23428,-28.72454 0,-7.18116 35.90567,0 0,7.18116 -35.90567,0 z m 21.54339,28.72454 -7.18113,0 0,-28.72454 7.18113,0 0,28.72454 z m -57.54361,-28.72454 0,-7.18116 21.54341,0 0,7.18116 -21.54341,0 z m 0,14.36225 0,-7.18112 21.54341,0 0,7.18112 -21.54341,0 z m 0,14.36229 -7.18113,0 0,-28.72454 7.18113,0 0,28.72454 z m 28.72454,0 -7.18113,0 0,-28.72454 7.18113,0 0,28.72454 z m -71.90589,0 -7.18113,0 0,-35.9057 7.18113,0 0,35.9057 z m 0,-28.72454 0,-7.18116 21.54341,0 0,7.18116 -21.54341,0 z m 0,28.72454 0,-7.18116 21.54341,0 0,7.18116 -21.54341,0 z m 28.72454,-7.18116 -7.18113,0 0,-21.54338 7.18113,0 0,21.54338 z" style="font-style:normal;font-variant:normal;font-weight:400;font-stretch:normal;font-size:medium;line-height:125%;font-family:'Victors Pixel Font';-inkscape-font-specification:'Victors Pixel Font, Normal';text-align:start;letter-spacing:-2.79999995px;word-spacing:0;writing-mode:lr-tb;text-anchor:start;fill:#333844;fill-opacity:1;stroke:none"/><path style="font-style:normal;font-variant:normal;font-weight:400;font-stretch:normal;font-size:medium;line-height:125%;font-family:'Victors Pixel Font';-inkscape-font-specification:'Victors Pixel Font, Normal';text-align:start;letter-spacing:-2.79999995px;word-spacing:0;writing-mode:lr-tb;text-anchor:start;fill:#333844;fill-opacity:1;stroke:none" id="path4444" d="m 79.63672,410.81441 0,79.88872 7.181838,0 180.576802,0 0,-7.18184 -180.576802,0 0,-65.52505 180.576802,0 0,-7.18183 -180.576802,0 -3.254654,0 -3.927184,0 z"/><path style="font-style:normal;font-variant:normal;font-weight:400;font-stretch:normal;font-size:medium;line-height:125%;font-family:'Victors Pixel Font';-inkscape-font-specification:'Victors Pixel Font, Normal';text-align:start;letter-spacing:-2.79999995px;word-spacing:0;writing-mode:lr-tb;text-anchor:start;fill:#333844;fill-opacity:1;stroke:none" id="path4446" d="m 281.96032,410.81441 0,79.88872 7.18183,0 166.65985,0 0,-7.18184 -166.65985,0 0,-65.52505 166.65985,0 0,-7.18183 -166.65985,0 -3.25465,0 -3.92718,0 z"/><path style="font-style:normal;font-variant:normal;font-weight:400;font-stretch:normal;font-size:medium;line-height:125%;font-family:'Victors Pixel Font';-inkscape-font-specification:'Victors Pixel Font, Normal';text-align:start;letter-spacing:-2.79999995px;word-spacing:0;writing-mode:lr-tb;text-anchor:start;fill:#333844;fill-opacity:1;stroke:none" id="path4448" d="m 470.25893,410.81441 0,79.88872 7.18186,0 197.14462,0 5.05132,0 0,-79.88872 -2.58211,0 -4.59972,0 -195.01411,0 -3.25467,0 -3.92719,0 z m 7.18186,7.18183 195.01411,0 0,65.52505 -195.01411,0 0,-65.52505 z"/></g></g></svg>